<svg width="85" height="84" viewBox="0 0 85 84" fill="none" xmlns="http://www.w3.org/2000/svg">
<g clip-path="url(#clip0_279_2876)">
<path d="M42.2609 18.4683C55.2602 18.4683 65.7983 29.0063 65.7983 42.0057C65.7983 55.0051 55.2602 65.5432 42.2609 65.5432C29.2615 65.5432 18.7234 55.0051 18.7234 42.0057C18.7234 29.0063 29.2615 18.4683 42.2609 18.4683Z" fill="url(#paint0_radial_279_2876)"/>
<path d="M42.2608 69.4661C44.4274 69.4661 46.1837 71.2224 46.1837 73.389V77.3119C46.1837 79.4785 44.4274 81.2348 42.2608 81.2348C40.0942 81.2348 38.3379 79.4785 38.3379 77.3119V73.389C38.3379 71.2224 40.0942 69.4661 42.2608 69.4661ZM67.2262 61.4233L70.0001 64.1972C71.532 65.7291 71.532 68.2127 70.0001 69.745C68.4682 71.2769 65.9842 71.2769 64.4523 69.745L61.6784 66.9711C60.1465 65.4388 60.1465 62.9552 61.6784 61.4233C63.2103 59.8911 65.6943 59.8911 67.2262 61.4233ZM17.2953 61.4233C18.8273 59.8911 21.3112 59.8911 22.8432 61.4233C24.2573 62.8374 24.3661 65.0627 23.1695 66.6016L22.8432 66.9711L20.0693 69.745C18.5373 71.2769 16.0534 71.2769 14.5214 69.745C13.1073 68.331 12.9985 66.1056 14.1951 64.5668L14.5214 64.1972L17.2953 61.4233ZM10.8775 38.0828C13.0441 38.0828 14.8004 39.8391 14.8004 42.0057C14.8004 44.0176 13.286 45.6756 11.335 45.9022L10.8775 45.9286H6.95462C4.78807 45.9286 3.03171 44.1723 3.03171 42.0057C3.03171 39.9939 4.54612 38.3358 6.49713 38.1092L6.95462 38.0828H10.8775ZM77.567 38.0828C79.7336 38.0828 81.4899 39.8391 81.4899 42.0057C81.4899 44.1723 79.7336 45.9286 77.567 45.9286H73.6441C71.4775 45.9286 69.7212 44.1723 69.7212 42.0057C69.7212 39.8391 71.4775 38.0828 73.6441 38.0828H77.567ZM14.5216 14.2663C15.9357 12.8522 18.1609 12.7434 19.6998 13.94L20.0694 14.2663L22.8433 17.0403C24.3753 18.5723 24.3753 21.0561 22.8433 22.5881C21.4291 24.0022 19.204 24.111 17.665 22.9144L17.2955 22.5881L14.5216 19.8142C12.9895 18.2822 12.9895 15.7983 14.5216 14.2663ZM70.0001 14.2664C71.532 15.7984 71.532 18.2823 70.0001 19.8142L67.2262 22.5882C65.6939 24.1201 63.2103 24.1201 61.6784 22.5882C60.1462 21.0562 60.1462 18.5723 61.6784 17.0403L64.4523 14.2664C65.9842 12.7344 68.4678 12.7344 70.0001 14.2664ZM42.2608 2.77661C44.4274 2.77661 46.1837 4.53298 46.1837 6.69952V10.6224C46.1837 12.789 44.4274 14.5453 42.2608 14.5453C40.0942 14.5453 38.3379 12.789 38.3379 10.6224V6.69952C38.3379 4.53298 40.0942 2.77661 42.2608 2.77661Z" fill="url(#paint1_linear_279_2876)"/>
</g>
<defs>
<radialGradient id="paint0_radial_279_2876" cx="0" cy="0" r="1" gradientUnits="userSpaceOnUse" gradientTransform="translate(25.9154 24.3526) rotate(43.0203) scale(54.5474)">
<stop offset="0.193671" stop-color="#FFE475"/>
<stop offset="0.529275" stop-color="#FFB029"/>
<stop offset="0.780467" stop-color="#FF9100"/>
</radialGradient>
<linearGradient id="paint1_linear_279_2876" x1="2.54134" y1="2.28625" x2="81.9803" y2="81.7252" gradientUnits="userSpaceOnUse">
<stop offset="0.166667" stop-color="#FFE475"/>
<stop offset="0.798611" stop-color="#FFBF29"/>
</linearGradient>
<clipPath id="clip0_279_2876">
<rect width="83.6888" height="83.6888" fill="white" transform="translate(0.416443 0.161377)"/>
</clipPath>
</defs>
</svg>
